#N canvas 268 23 1185 601 10;
#X obj 43 293 *~ 0.5;
#X obj 43 352 dac~;
#X obj 84 131 osc~ 440;
#X obj 153 183 *~;
#X obj 233 128 osc~ 100;
#X text 340 132 If the initial frequency is 440 Hz and the amplitude
frequency is 100 Hz \, you'll hear two tones: one at 340 Hz and one
at 540 Hz. 100 Hz above and 100 Hz below the amplitude freqnecy.;
#X text 340 197 Amplitude modulation in the form of 'ring modulation.'
Ring modulators frequency mix or heterodyne two waveforms \, and output
the sum and difference of the frequencies present in each waveform.
;
#N canvas 0 22 450 300 (subpatch) 0;
#X array spectrum10 128 float 0;
#X coords 0 500 128 0 256 130 1;
#X restore 716 54 graph;
#N canvas 204 22 358 238 fft 0;
#X obj 46 48 inlet~;
#X obj 159 145 inlet;
#X obj 46 78 rfft~;
#X obj 46 111 *~;
#X obj 77 111 *~;
#X obj 46 141 sqrt~;
#X obj 191 45 block~ 1024 1;
#X obj 159 181 tabwrite~ spectrum10;
#X connect 0 0 2 0;
#X connect 1 0 7 0;
#X connect 2 0 3 0;
#X connect 2 0 3 1;
#X connect 2 1 4 0;
#X connect 2 1 4 1;
#X connect 3 0 5 0;
#X connect 4 0 5 0;
#X connect 5 0 7 0;
#X restore 382 483 pd fft;
#X obj 445 352 tgl 30 0 empty empty empty 17 7 0 10 -262144 -1 -1 1
1;
#X obj 445 397 metro 50;
#X obj 374 423 *~ 1;
#N canvas 0 22 450 300 (subpatch) 0;
#X array spectrum11 128 float 0;
#X coords 0 500 128 0 256 130 1;
#X restore 717 201 graph;
#N canvas 0 22 450 300 (subpatch) 0;
#X array spectrum12 128 float 0;
#X coords 0 500 128 0 256 130 1;
#X restore 717 348 graph;
#N canvas 204 22 358 238 fft 0;
#X obj 46 48 inlet~;
#X obj 159 145 inlet;
#X obj 46 78 rfft~;
#X obj 46 111 *~;
#X obj 77 111 *~;
#X obj 46 141 sqrt~;
#X obj 191 45 block~ 1024 1;
#X obj 159 181 tabwrite~ spectrum12;
#X connect 0 0 2 0;
#X connect 1 0 7 0;
#X connect 2 0 3 0;
#X connect 2 0 3 1;
#X connect 2 1 4 0;
#X connect 2 1 4 1;
#X connect 3 0 5 0;
#X connect 4 0 5 0;
#X connect 5 0 7 0;
#X restore 277 485 pd fft;
#X obj 270 424 *~ 1;
#N canvas 204 22 358 238 fft 0;
#X obj 46 48 inlet~;
#X obj 159 145 inlet;
#X obj 46 78 rfft~;
#X obj 46 111 *~;
#X obj 77 111 *~;
#X obj 46 141 sqrt~;
#X obj 191 45 block~ 1024 1;
#X obj 159 181 tabwrite~ spectrum11;
#X connect 0 0 2 0;
#X connect 1 0 7 0;
#X connect 2 0 3 0;
#X connect 2 0 3 1;
#X connect 2 1 4 0;
#X connect 2 1 4 1;
#X connect 3 0 5 0;
#X connect 4 0 5 0;
#X connect 5 0 7 0;
#X restore 327 485 pd fft;
#X obj 320 424 *~ 1;
#X floatatom 83 101 5 0 0 0 - - -, f 5;
#X floatatom 233 103 5 0 0 0 - - -, f 5;
#X obj 86 13 hsl 128 15 0 1 0 0 empty empty empty -2 -8 0 10 -262144
-1 -1 12700 1;
#X obj 83 41 * 1000;
#X obj 83 70 + 100;
#X obj 236 13 hsl 128 15 0 1 0 0 empty empty empty -2 -8 0 10 -262144
-1 -1 2800 1;
#X obj 233 41 * 1000;
#X obj 233 70 + 100;
#X connect 0 0 1 0;
#X connect 0 0 1 1;
#X connect 2 0 3 0;
#X connect 2 0 15 0;
#X connect 3 0 0 0;
#X connect 3 0 11 0;
#X connect 4 0 3 1;
#X connect 4 0 17 0;
#X connect 9 0 10 0;
#X connect 10 0 8 1;
#X connect 10 0 16 1;
#X connect 10 0 14 1;
#X connect 11 0 8 0;
#X connect 15 0 14 0;
#X connect 17 0 16 0;
#X connect 18 0 2 0;
#X connect 19 0 4 0;
#X connect 20 0 21 0;
#X connect 21 0 22 0;
#X connect 22 0 18 0;
#X connect 23 0 24 0;
#X connect 24 0 25 0;
#X connect 25 0 19 0;
