#N canvas 275 23 1442 894 10;
#X floatatom 111 244 5 0 0 0 - - -, f 5;
#X floatatom 166 244 5 0 0 0 - - -, f 5;
#X floatatom 221 244 5 0 0 0 - - -, f 5;
#X floatatom 56 244 5 0 0 0 - - -, f 5;
#X obj 56 45 ctlin 1;
#X obj 56 281 vsl 15 128 0 1 0 0 empty empty empty 0 -9 0 10 -262144
-1 -1 0 1;
#X obj 111 281 vsl 15 128 0 1 0 0 empty empty empty 0 -9 0 10 -262144
-1 -1 0 1;
#X obj 166 281 vsl 15 128 0 1 0 0 empty empty empty 0 -9 0 10 -262144
-1 -1 0 1;
#X obj 221 281 vsl 15 128 0 1 0 0 empty empty empty 0 -9 0 10 -262144
-1 -1 0 1;
#X floatatom 375 244 5 0 0 0 - - -, f 5;
#X floatatom 430 244 5 0 0 0 - - -, f 5;
#X floatatom 485 244 5 0 0 0 - - -, f 5;
#X floatatom 320 244 5 0 0 0 - - -, f 5;
#X obj 320 281 vsl 15 128 0 1 0 0 empty empty empty 0 -9 0 10 -262144
-1 -1 0 1;
#X obj 375 281 vsl 15 128 0 1 0 0 empty empty empty 0 -9 0 10 -262144
-1 -1 0 1;
#X obj 430 281 vsl 15 128 0 1 0 0 empty empty empty 0 -9 0 10 -262144
-1 -1 0 1;
#X obj 485 281 vsl 15 128 0 1 0 0 empty empty empty 0 -9 0 10 -262144
-1 -1 0 1;
#X obj 56 123 change;
#X obj 111 123 change;
#X obj 166 123 change;
#X obj 221 123 change;
#X obj 320 123 change;
#X obj 375 123 change;
#X obj 430 123 change;
#X obj 485 123 change;
#X obj 56 150 / 127;
#X obj 111 150 / 127;
#X obj 166 149 / 127;
#X obj 221 149 / 127;
#X obj 320 147 / 127;
#X obj 375 147 / 127;
#X obj 430 146 / 127;
#X obj 485 146 / 127;
#X obj 56 220 line;
#X obj 111 220 line;
#X obj 166 220 line;
#X obj 221 220 line;
#X obj 320 220 line;
#X obj 375 220 line;
#X obj 430 220 line;
#X obj 485 220 line;
#X obj 111 45 ctlin 2;
#X obj 166 45 ctlin 3;
#X obj 221 45 ctlin 4;
#X obj 320 45 ctlin 5;
#X obj 375 45 ctlin 6;
#X obj 430 45 ctlin 7;
#X obj 485 45 ctlin 8;
#X obj 56 179 pack f 100;
#X obj 122 179 pack f 100;
#X obj 188 179 pack f 100;
#X obj 254 179 pack f 100;
#X obj 320 179 pack f 100;
#X obj 386 179 pack f 100;
#X obj 452 179 pack f 100;
#X obj 518 179 pack f 100;
#X floatatom 641 244 5 0 0 0 - - -, f 5;
#X floatatom 696 244 5 0 0 0 - - -, f 5;
#X floatatom 751 244 5 0 0 0 - - -, f 5;
#X floatatom 586 244 5 0 0 0 - - -, f 5;
#X obj 586 281 vsl 15 128 0 1 0 0 empty empty empty 0 -9 0 10 -262144
-1 -1 0 1;
#X obj 641 281 vsl 15 128 0 1 0 0 empty empty empty 0 -9 0 10 -262144
-1 -1 0 1;
#X obj 696 281 vsl 15 128 0 1 0 0 empty empty empty 0 -9 0 10 -262144
-1 -1 0 1;
#X obj 751 281 vsl 15 128 0 1 0 0 empty empty empty 0 -9 0 10 -262144
-1 -1 0 1;
#X floatatom 905 244 5 0 0 0 - - -, f 5;
#X floatatom 960 244 5 0 0 0 - - -, f 5;
#X floatatom 1015 244 5 0 0 0 - - -, f 5;
#X floatatom 850 244 5 0 0 0 - - -, f 5;
#X obj 850 281 vsl 15 128 0 1 0 0 empty empty empty 0 -9 0 10 -262144
-1 -1 0 1;
#X obj 905 281 vsl 15 128 0 1 0 0 empty empty empty 0 -9 0 10 -262144
-1 -1 0 1;
#X obj 960 281 vsl 15 128 0 1 0 0 empty empty empty 0 -9 0 10 -262144
-1 -1 0 1;
#X obj 1015 281 vsl 15 128 0 1 0 0 empty empty empty 0 -9 0 10 -262144
-1 -1 0 1;
#X obj 586 123 change;
#X obj 641 123 change;
#X obj 696 123 change;
#X obj 751 123 change;
#X obj 850 123 change;
#X obj 905 123 change;
#X obj 960 123 change;
#X obj 1015 123 change;
#X obj 586 150 / 127;
#X obj 641 150 / 127;
#X obj 696 149 / 127;
#X obj 751 149 / 127;
#X obj 850 147 / 127;
#X obj 905 147 / 127;
#X obj 960 146 / 127;
#X obj 1015 146 / 127;
#X obj 586 220 line;
#X obj 641 220 line;
#X obj 696 220 line;
#X obj 751 220 line;
#X obj 850 220 line;
#X obj 905 220 line;
#X obj 960 220 line;
#X obj 1015 220 line;
#X obj 586 179 pack f 100;
#X obj 652 179 pack f 100;
#X obj 718 179 pack f 100;
#X obj 784 179 pack f 100;
#X obj 850 179 pack f 100;
#X obj 916 179 pack f 100;
#X obj 982 179 pack f 100;
#X obj 1048 179 pack f 100;
#X floatatom 110 650 5 0 0 0 - - -, f 5;
#X floatatom 165 650 5 0 0 0 - - -, f 5;
#X floatatom 220 650 5 0 0 0 - - -, f 5;
#X floatatom 55 650 5 0 0 0 - - -, f 5;
#X obj 55 687 vsl 15 128 0 1 0 0 empty empty empty 0 -9 0 10 -262144
-1 -1 0 1;
#X obj 110 687 vsl 15 128 0 1 0 0 empty empty empty 0 -9 0 10 -262144
-1 -1 0 1;
#X obj 165 687 vsl 15 128 0 1 0 0 empty empty empty 0 -9 0 10 -262144
-1 -1 0 1;
#X obj 220 687 vsl 15 128 0 1 0 0 empty empty empty 0 -9 0 10 -262144
-1 -1 0 1;
#X floatatom 374 650 5 0 0 0 - - -, f 5;
#X floatatom 429 650 5 0 0 0 - - -, f 5;
#X floatatom 484 650 5 0 0 0 - - -, f 5;
#X floatatom 319 650 5 0 0 0 - - -, f 5;
#X obj 319 687 vsl 15 128 0 1 0 0 empty empty empty 0 -9 0 10 -262144
-1 -1 0 1;
#X obj 374 687 vsl 15 128 0 1 0 0 empty empty empty 0 -9 0 10 -262144
-1 -1 0 1;
#X obj 429 687 vsl 15 128 0 1 0 0 empty empty empty 0 -9 0 10 -262144
-1 -1 0 1;
#X obj 484 687 vsl 15 128 0 1 0 0 empty empty empty 0 -9 0 10 -262144
-1 -1 0 1;
#X obj 55 529 change;
#X obj 110 529 change;
#X obj 165 529 change;
#X obj 220 529 change;
#X obj 319 529 change;
#X obj 374 529 change;
#X obj 429 529 change;
#X obj 484 529 change;
#X obj 55 556 / 127;
#X obj 110 556 / 127;
#X obj 165 555 / 127;
#X obj 220 555 / 127;
#X obj 319 553 / 127;
#X obj 374 553 / 127;
#X obj 429 552 / 127;
#X obj 484 552 / 127;
#X obj 55 626 line;
#X obj 110 626 line;
#X obj 165 626 line;
#X obj 220 626 line;
#X obj 319 626 line;
#X obj 374 626 line;
#X obj 429 626 line;
#X obj 484 626 line;
#X obj 55 585 pack f 100;
#X obj 121 585 pack f 100;
#X obj 187 585 pack f 100;
#X obj 253 585 pack f 100;
#X obj 319 585 pack f 100;
#X obj 385 585 pack f 100;
#X obj 451 585 pack f 100;
#X obj 517 585 pack f 100;
#X obj 586 45 ctlin 9;
#X obj 641 45 ctlin 10;
#X obj 696 45 ctlin 11;
#X obj 751 45 ctlin 12;
#X obj 850 45 ctlin 13;
#X obj 905 45 ctlin 14;
#X obj 960 45 ctlin 15;
#X obj 1015 45 ctlin 16;
#X obj 55 451 ctlin 17;
#X obj 110 451 ctlin 18;
#X obj 165 451 ctlin 19;
#X obj 220 451 ctlin 20;
#X obj 319 451 ctlin 21;
#X obj 374 451 ctlin 22;
#X obj 429 451 ctlin 23;
#X obj 484 451 ctlin 24;
#X text 788 502 24 touch sensors with 3 multiplexer boards (8 channel)
\; Uses only 3 touch pins on Teensy \; + 3 pins to control multiplexer
\;;
#X connect 0 0 6 0;
#X connect 1 0 7 0;
#X connect 2 0 8 0;
#X connect 3 0 5 0;
#X connect 4 0 17 0;
#X connect 9 0 14 0;
#X connect 10 0 15 0;
#X connect 11 0 16 0;
#X connect 12 0 13 0;
#X connect 17 0 25 0;
#X connect 18 0 26 0;
#X connect 19 0 27 0;
#X connect 20 0 28 0;
#X connect 21 0 29 0;
#X connect 22 0 30 0;
#X connect 23 0 31 0;
#X connect 24 0 32 0;
#X connect 25 0 48 0;
#X connect 26 0 49 0;
#X connect 27 0 50 0;
#X connect 28 0 51 0;
#X connect 29 0 52 0;
#X connect 30 0 53 0;
#X connect 31 0 54 0;
#X connect 32 0 55 0;
#X connect 33 0 3 0;
#X connect 34 0 0 0;
#X connect 35 0 1 0;
#X connect 36 0 2 0;
#X connect 37 0 12 0;
#X connect 38 0 9 0;
#X connect 39 0 10 0;
#X connect 40 0 11 0;
#X connect 41 0 18 0;
#X connect 42 0 19 0;
#X connect 43 0 20 0;
#X connect 44 0 21 0;
#X connect 45 0 22 0;
#X connect 46 0 23 0;
#X connect 47 0 24 0;
#X connect 48 0 33 0;
#X connect 49 0 34 0;
#X connect 50 0 35 0;
#X connect 51 0 36 0;
#X connect 52 0 37 0;
#X connect 53 0 38 0;
#X connect 54 0 39 0;
#X connect 55 0 40 0;
#X connect 56 0 61 0;
#X connect 57 0 62 0;
#X connect 58 0 63 0;
#X connect 59 0 60 0;
#X connect 64 0 69 0;
#X connect 65 0 70 0;
#X connect 66 0 71 0;
#X connect 67 0 68 0;
#X connect 72 0 80 0;
#X connect 73 0 81 0;
#X connect 74 0 82 0;
#X connect 75 0 83 0;
#X connect 76 0 84 0;
#X connect 77 0 85 0;
#X connect 78 0 86 0;
#X connect 79 0 87 0;
#X connect 80 0 96 0;
#X connect 81 0 97 0;
#X connect 82 0 98 0;
#X connect 83 0 99 0;
#X connect 84 0 100 0;
#X connect 85 0 101 0;
#X connect 86 0 102 0;
#X connect 87 0 103 0;
#X connect 88 0 59 0;
#X connect 89 0 56 0;
#X connect 90 0 57 0;
#X connect 91 0 58 0;
#X connect 92 0 67 0;
#X connect 93 0 64 0;
#X connect 94 0 65 0;
#X connect 95 0 66 0;
#X connect 96 0 88 0;
#X connect 97 0 89 0;
#X connect 98 0 90 0;
#X connect 99 0 91 0;
#X connect 100 0 92 0;
#X connect 101 0 93 0;
#X connect 102 0 94 0;
#X connect 103 0 95 0;
#X connect 104 0 109 0;
#X connect 105 0 110 0;
#X connect 106 0 111 0;
#X connect 107 0 108 0;
#X connect 112 0 117 0;
#X connect 113 0 118 0;
#X connect 114 0 119 0;
#X connect 115 0 116 0;
#X connect 120 0 128 0;
#X connect 121 0 129 0;
#X connect 122 0 130 0;
#X connect 123 0 131 0;
#X connect 124 0 132 0;
#X connect 125 0 133 0;
#X connect 126 0 134 0;
#X connect 127 0 135 0;
#X connect 128 0 144 0;
#X connect 129 0 145 0;
#X connect 130 0 146 0;
#X connect 131 0 147 0;
#X connect 132 0 148 0;
#X connect 133 0 149 0;
#X connect 134 0 150 0;
#X connect 135 0 151 0;
#X connect 136 0 107 0;
#X connect 137 0 104 0;
#X connect 138 0 105 0;
#X connect 139 0 106 0;
#X connect 140 0 115 0;
#X connect 141 0 112 0;
#X connect 142 0 113 0;
#X connect 143 0 114 0;
#X connect 144 0 136 0;
#X connect 145 0 137 0;
#X connect 146 0 138 0;
#X connect 147 0 139 0;
#X connect 148 0 140 0;
#X connect 149 0 141 0;
#X connect 150 0 142 0;
#X connect 151 0 143 0;
#X connect 152 0 72 0;
#X connect 153 0 73 0;
#X connect 154 0 74 0;
#X connect 155 0 75 0;
#X connect 156 0 76 0;
#X connect 157 0 77 0;
#X connect 158 0 78 0;
#X connect 159 0 79 0;
#X connect 160 0 120 0;
#X connect 161 0 121 0;
#X connect 162 0 122 0;
#X connect 163 0 123 0;
#X connect 164 0 124 0;
#X connect 165 0 125 0;
#X connect 166 0 126 0;
#X connect 167 0 127 0;
