#N canvas 317 82 1178 579 10;
#X floatatom 423 508 5 0 0 0 - - -, f 5;
#X obj 423 535 ctlout 60;
#X msg 313 325 67;
#X msg 267 328 66;
#X msg 354 328 68;
#X msg 233 330 65;
#X msg 196 330 64;
#X msg 162 332 63;
#X msg 401 327 69;
#X msg 440 323 70;
#X msg 502 324 71;
#X msg 537 319 72;
#X msg 583 325 73;
#X msg 624 332 74;
#X msg 128 332 62;
#X msg 94 334 61;
#X msg 57 334 60;
#X obj 195 165 hsl 128 15 0 14 0 0 empty empty empty -2 -8 0 10 -262144
-1 -1 0 1;
#X obj 212 220 + 60;
#X obj 213 247 int;
#X floatatom 217 279 5 0 0 0 - - -, f 5;
#X obj 190 74 receive fromGUI;
#X obj 190 111 list trim;
#X obj 190 139 route /servo1;
#X obj 735 201 loadbang;
#X obj 762 316 send toGUI;
#X msg 748 265 list /servo1 \$1;
#X msg 751 233 7;
#X floatatom 112 169 5 0 0 0 - - -, f 5;
#X obj 414 39 adc~;
#X obj 414 89 fiddle~ 1024;
#X text 462 37 <- analog to digital converter... using channel 1;
#X text 509 89 <- fiddle~ estimates the pitch;
#X obj 446 223 f;
#X floatatom 438 271 5 0 0 0 - - -, f 5;
#X obj 375 177 metro 300;
#X obj 368 147 tgl 15 0 empty empty empty 17 7 0 10 -262144 -1 -1 1
1;
#X floatatom 469 162 5 0 0 0 - - -, f 5;
#X obj 332 78 loadbang;
#X msg 352 114 1;
#X connect 0 0 1 0;
#X connect 2 0 0 0;
#X connect 3 0 0 0;
#X connect 4 0 0 0;
#X connect 5 0 0 0;
#X connect 6 0 0 0;
#X connect 7 0 0 0;
#X connect 8 0 0 0;
#X connect 9 0 0 0;
#X connect 10 0 0 0;
#X connect 11 0 0 0;
#X connect 12 0 0 0;
#X connect 13 0 0 0;
#X connect 14 0 0 0;
#X connect 15 0 0 0;
#X connect 16 0 0 0;
#X connect 17 0 18 0;
#X connect 18 0 19 0;
#X connect 19 0 20 0;
#X connect 20 0 0 0;
#X connect 21 0 22 0;
#X connect 22 0 23 0;
#X connect 23 0 17 0;
#X connect 23 0 28 0;
#X connect 24 0 27 0;
#X connect 26 0 25 0;
#X connect 27 0 26 0;
#X connect 29 0 30 0;
#X connect 30 2 37 0;
#X connect 33 0 34 0;
#X connect 34 0 0 0;
#X connect 35 0 33 0;
#X connect 36 0 35 0;
#X connect 37 0 33 1;
#X connect 38 0 39 0;
#X connect 39 0 36 0;
