#N canvas 0 0 917 605 10;
#N canvas 0 0 450 300 graph1 0;
#X array \$0-array1 100 float 2;
#X coords 0 1 99 -1 200 140 1;
#X restore 622 17 graph;
#N canvas 0 0 450 300 graph1 0;
#X array \$0-array2 66 float 2;
#X coords 0 1 66 -1 200 140 1;
#X restore 621 180 graph;
#N canvas 0 0 450 300 graph1 0;
#X array \$0-array3 20 float 2;
#X coords 0 1 20 -1 200 140 1;
#X restore 619 349 graph;
#X obj 41 238 pack s f f;
#X msg 40 207 symbol a;
#X obj 450 434 textfile;
#X obj 98 178 tabread \$0-array1;
#X obj 48 110 f;
#X obj 74 110 + 1;
#X obj 48 89 until;
#X msg 46 66 100;
#X obj 48 143 t b f f;
#X obj 450 402 r \$0-textfile;
#X text 75 67 <- size of array1;
#X obj 387 -19 bng 15 250 50 0 empty empty empty 0 -6 0 10 -262144
-1 -1;
#X text 406 -20 save arrays;
#X obj 88 336 r \$0-save;
#X obj 180 453 s \$0-textfile;
#X msg 180 430 clear;
#X obj 227 236 pack s f f;
#X obj 234 108 f;
#X obj 260 108 + 1;
#X obj 234 87 until;
#X obj 234 141 t b f f;
#X text 261 65 <- size of array2;
#X obj 284 176 tabread \$0-array2;
#X msg 232 64 66;
#X obj 411 237 pack s f f;
#X obj 418 109 f;
#X obj 444 109 + 1;
#X obj 418 88 until;
#X obj 418 142 t b f f;
#X obj 410 283 s \$0-textfile;
#X text 445 66 <- size of array3;
#X obj 468 177 tabread \$0-array3;
#X obj 387 4 s \$0-save;
#X obj 87 358 savepanel;
#X obj 46 42 r \$0-save1;
#X obj 230 43 r \$0-save2;
#X obj 416 43 r \$0-save3;
#X msg 32 423 write \$1;
#X obj 33 446 s \$0-textfile;
#X obj 87 380 t a b;
#X obj 129 404 t b b b b;
#X obj 165 479 s \$0-save1;
#X obj 152 504 s \$0-save2;
#X obj 136 528 s \$0-save3;
#X obj 450 460 route a b c;
#X msg 226 205 symbol b;
#X msg 411 205 symbol c;
#X obj 225 282 s \$0-textfile;
#X obj 39 284 s \$0-textfile;
#X obj 395 543 s \$0-array1;
#X obj 428 523 s \$0-array2;
#X obj 470 500 s \$0-array3;
#X msg 390 385 read \$1;
#X msg 364 410 rewind;
#X obj 348 433 until;
#X obj 349 363 t b b a;
#X obj 349 343 openpanel;
#X obj 350 319 r \$0-load;
#X obj 491 -16 bng 15 250 50 0 empty empty empty 0 -6 0 10 -262144
-1 -1;
#X obj 491 4 s \$0-load;
#X text 510 -17 load arrays;
#X msg 40 263 add \$1 \$2 \$3;
#X msg 226 261 add \$1 \$2 \$3;
#X msg 411 262 add \$1 \$2 \$3;
#X msg 416 65 20;
#X text 470 204 <- symbol for array3;
#X text 277 203 <- symbol for array2;
#X text 93 205 <- symbol for array1;
#X connect 3 0 64 0;
#X connect 4 0 3 0;
#X connect 5 0 47 0;
#X connect 5 1 57 1;
#X connect 6 0 3 2;
#X connect 7 0 8 0;
#X connect 7 0 11 0;
#X connect 8 0 7 1;
#X connect 9 0 7 0;
#X connect 10 0 9 0;
#X connect 11 0 4 0;
#X connect 11 1 3 1;
#X connect 11 2 6 0;
#X connect 12 0 5 0;
#X connect 14 0 35 0;
#X connect 16 0 36 0;
#X connect 18 0 17 0;
#X connect 19 0 65 0;
#X connect 20 0 21 0;
#X connect 20 0 23 0;
#X connect 21 0 20 1;
#X connect 22 0 20 0;
#X connect 23 0 48 0;
#X connect 23 1 19 1;
#X connect 23 2 25 0;
#X connect 25 0 19 2;
#X connect 26 0 22 0;
#X connect 27 0 66 0;
#X connect 28 0 29 0;
#X connect 28 0 31 0;
#X connect 29 0 28 1;
#X connect 30 0 28 0;
#X connect 31 0 49 0;
#X connect 31 1 27 1;
#X connect 31 2 34 0;
#X connect 34 0 27 2;
#X connect 36 0 42 0;
#X connect 37 0 10 0;
#X connect 38 0 26 0;
#X connect 39 0 67 0;
#X connect 40 0 41 0;
#X connect 42 0 40 0;
#X connect 42 1 43 0;
#X connect 43 0 46 0;
#X connect 43 1 45 0;
#X connect 43 2 44 0;
#X connect 43 3 18 0;
#X connect 47 0 52 0;
#X connect 47 1 53 0;
#X connect 47 2 54 0;
#X connect 48 0 19 0;
#X connect 49 0 27 0;
#X connect 55 0 5 0;
#X connect 56 0 5 0;
#X connect 57 0 5 0;
#X connect 58 0 57 0;
#X connect 58 1 56 0;
#X connect 58 2 55 0;
#X connect 59 0 58 0;
#X connect 60 0 59 0;
#X connect 61 0 62 0;
#X connect 64 0 51 0;
#X connect 65 0 50 0;
#X connect 66 0 32 0;
#X connect 67 0 30 0;
