#N canvas 234 96 1137 650 10;
#X obj 170 490 ctlout 60;
#X obj 170 407 tgl 15 0 empty empty empty 17 7 0 10 -262144 -1 -1 0
1;
#X obj 170 454 * 127;
#X obj 235 407 tgl 15 0 empty empty empty 17 7 0 10 -262144 -1 -1 0
1;
#X obj 235 454 * 127;
#X obj 300 407 tgl 15 0 empty empty empty 17 7 0 10 -262144 -1 -1 0
1;
#X obj 300 454 * 127;
#X obj 365 407 tgl 15 0 empty empty empty 17 7 0 10 -262144 -1 -1 0
1;
#X obj 365 454 * 127;
#X obj 365 490 ctlout 63;
#X floatatom 116 498 5 0 0 0 - - -, f 5;
#X obj 237 47 tgl 15 0 empty empty empty 17 7 0 10 -262144 -1 -1 1
1;
#X obj 237 123 f 0;
#X obj 321 150 + 1;
#X obj 237 162 t f f;
#X floatatom 237 198 5 0 0 0 - - -, f 5;
#X msg 419 134 0;
#X obj 237 227 select 0 1 2 3 4 5;
#X floatatom 305 47 5 0 0 0 - - -, f 5;
#X obj 237 88 metro 100;
#X obj 235 490 ctlout 62;
#X obj 300 490 ctlout 61;
#X text 444 494 alternate order so that you don't trigger two solenoids
on the same side of the H-bridge in sequence (bounce between one side
and the other) \; this is just an intuitive guess...;
#X obj 170 295 t b b, f 6;
#X msg 170 331 1;
#X msg 203 358 0;
#X obj 203 331 delay 50;
#X obj 275 295 t b b, f 6;
#X msg 275 331 1;
#X msg 308 358 0;
#X obj 308 331 delay 50;
#X obj 384 295 t b b, f 6;
#X msg 384 331 1;
#X msg 417 358 0;
#X obj 417 331 delay 50;
#X obj 488 295 t b b, f 6;
#X msg 488 331 1;
#X msg 521 358 0;
#X obj 521 331 delay 50;
#X text 619 323 this set-up immediately returns solenoid to its rest-state
\, so that it is not holding in the push-state (which could cause heat
to build up);
#X connect 1 0 2 0;
#X connect 2 0 0 0;
#X connect 2 0 10 0;
#X connect 3 0 4 0;
#X connect 4 0 20 0;
#X connect 5 0 6 0;
#X connect 6 0 21 0;
#X connect 7 0 8 0;
#X connect 8 0 9 0;
#X connect 11 0 19 0;
#X connect 12 0 14 0;
#X connect 13 0 12 1;
#X connect 14 0 15 0;
#X connect 14 1 13 0;
#X connect 15 0 17 0;
#X connect 16 0 12 1;
#X connect 17 0 23 0;
#X connect 17 1 27 0;
#X connect 17 2 31 0;
#X connect 17 3 35 0;
#X connect 17 5 16 0;
#X connect 18 0 19 1;
#X connect 19 0 12 0;
#X connect 23 0 24 0;
#X connect 23 1 26 0;
#X connect 24 0 1 0;
#X connect 25 0 1 0;
#X connect 26 0 25 0;
#X connect 27 0 28 0;
#X connect 27 1 30 0;
#X connect 28 0 3 0;
#X connect 29 0 3 0;
#X connect 30 0 29 0;
#X connect 31 0 32 0;
#X connect 31 1 34 0;
#X connect 32 0 5 0;
#X connect 33 0 5 0;
#X connect 34 0 33 0;
#X connect 35 0 36 0;
#X connect 35 1 38 0;
#X connect 36 0 7 0;
#X connect 37 0 7 0;
#X connect 38 0 37 0;
