#N canvas 446 36 1031 702 10;
#X floatatom 111 244 5 0 0 0 - - -, f 5;
#X floatatom 166 244 5 0 0 0 - - -, f 5;
#X floatatom 221 244 5 0 0 0 - - -, f 5;
#X floatatom 56 244 5 0 0 0 - - -, f 5;
#X obj 56 45 ctlin 1;
#X obj 56 281 vsl 15 128 0 1 0 0 empty empty empty 0 -9 0 10 -262144
-1 -1 2600 1;
#X obj 111 281 vsl 15 128 0 1 0 0 empty empty empty 0 -9 0 10 -262144
-1 -1 8100 1;
#X obj 166 281 vsl 15 128 0 1 0 0 empty empty empty 0 -9 0 10 -262144
-1 -1 7200 1;
#X obj 221 281 vsl 15 128 0 1 0 0 empty empty empty 0 -9 0 10 -262144
-1 -1 7300 1;
#X obj 111 45 ctlin 9;
#X obj 166 45 ctlin 17;
#X obj 221 45 ctlin 25;
#X floatatom 376 244 5 0 0 0 - - -, f 5;
#X floatatom 431 244 5 0 0 0 - - -, f 5;
#X floatatom 486 244 5 0 0 0 - - -, f 5;
#X floatatom 321 244 5 0 0 0 - - -, f 5;
#X obj 321 281 vsl 15 128 0 1 0 0 empty empty empty 0 -9 0 10 -262144
-1 -1 3800 1;
#X obj 376 281 vsl 15 128 0 1 0 0 empty empty empty 0 -9 0 10 -262144
-1 -1 10700 1;
#X obj 431 281 vsl 15 128 0 1 0 0 empty empty empty 0 -9 0 10 -262144
-1 -1 6600 1;
#X obj 486 281 vsl 15 128 0 1 0 0 empty empty empty 0 -9 0 10 -262144
-1 -1 6100 1;
#X obj 56 447 print 1;
#X obj 56 123 change;
#X obj 111 123 change;
#X obj 166 123 change;
#X obj 221 123 change;
#X obj 321 123 change;
#X obj 376 123 change;
#X obj 431 123 change;
#X obj 486 123 change;
#X obj 321 447 print 2;
#X obj 56 150 / 127;
#X obj 111 150 / 127;
#X obj 166 149 / 127;
#X obj 221 149 / 127;
#X obj 321 147 / 127;
#X obj 376 147 / 127;
#X obj 431 146 / 127;
#X obj 486 146 / 127;
#X obj 56 220 line;
#X obj 111 220 line;
#X obj 166 220 line;
#X obj 221 220 line;
#X obj 321 220 line;
#X obj 376 220 line;
#X obj 431 220 line;
#X obj 486 220 line;
#X obj 56 179 pack f 200;
#X obj 122 179 pack f 200;
#X obj 188 179 pack f 200;
#X obj 254 179 pack f 200;
#X obj 321 179 pack f 200;
#X obj 387 179 pack f 200;
#X obj 453 179 pack f 200;
#X obj 519 179 pack f 200;
#X floatatom 705 158 5 0 0 0 - - -, f 5;
#X obj 321 45 ctlin 8;
#X obj 376 45 ctlin 16;
#X obj 431 45 ctlin 24;
#X obj 486 45 ctlin 32;
#X connect 0 0 6 0;
#X connect 1 0 7 0;
#X connect 2 0 8 0;
#X connect 3 0 5 0;
#X connect 4 0 21 0;
#X connect 5 0 20 0;
#X connect 9 0 22 0;
#X connect 10 0 23 0;
#X connect 11 0 24 0;
#X connect 12 0 17 0;
#X connect 13 0 18 0;
#X connect 14 0 19 0;
#X connect 15 0 16 0;
#X connect 16 0 29 0;
#X connect 21 0 30 0;
#X connect 22 0 31 0;
#X connect 23 0 32 0;
#X connect 24 0 33 0;
#X connect 25 0 34 0;
#X connect 26 0 35 0;
#X connect 27 0 36 0;
#X connect 28 0 37 0;
#X connect 30 0 46 0;
#X connect 31 0 47 0;
#X connect 32 0 48 0;
#X connect 33 0 49 0;
#X connect 34 0 50 0;
#X connect 35 0 51 0;
#X connect 36 0 52 0;
#X connect 37 0 53 0;
#X connect 38 0 3 0;
#X connect 39 0 0 0;
#X connect 40 0 1 0;
#X connect 41 0 2 0;
#X connect 42 0 15 0;
#X connect 43 0 12 0;
#X connect 44 0 13 0;
#X connect 45 0 14 0;
#X connect 46 0 38 0;
#X connect 47 0 39 0;
#X connect 48 0 40 0;
#X connect 49 0 41 0;
#X connect 50 0 42 0;
#X connect 51 0 43 0;
#X connect 52 0 44 0;
#X connect 53 0 45 0;
#X connect 54 0 53 1;
#X connect 54 0 52 1;
#X connect 54 0 51 1;
#X connect 54 0 49 1;
#X connect 54 0 48 1;
#X connect 54 0 47 1;
#X connect 54 0 46 1;
#X connect 54 0 50 1;
#X connect 55 0 25 0;
#X connect 56 0 26 0;
#X connect 57 0 27 0;
#X connect 58 0 28 0;
