#N canvas 396 200 616 461 10;
#X obj 227 142 avg4;
#X floatatom 227 192 5 0 0 0 - - -, f 5;
#X msg 269 71 10 2 44 20;
#X msg 350 82 10 10 10 10;
#X msg 110 69 10 100 1 2;
#X msg 187 69 50 66 22 18;
#X connect 0 0 1 0;
#X connect 2 0 0 0;
#X connect 3 0 0 0;
#X connect 4 0 0 0;
#X connect 5 0 0 0;
