#N canvas 122 23 1442 894 10;
#X floatatom 111 244 5 0 0 0 - - -, f 5;
#X floatatom 166 244 5 0 0 0 - - -, f 5;
#X floatatom 221 244 5 0 0 0 - - -, f 5;
#X floatatom 56 244 5 0 0 0 - - -, f 5;
#X obj 56 45 ctlin 1;
#X obj 56 281 vsl 15 128 0 1 0 0 empty empty empty 0 -9 0 10 -262144
-1 -1 0 1;
#X obj 111 281 vsl 15 128 0 1 0 0 empty empty empty 0 -9 0 10 -262144
-1 -1 0 1;
#X obj 166 281 vsl 15 128 0 1 0 0 empty empty empty 0 -9 0 10 -262144
-1 -1 0 1;
#X obj 221 281 vsl 15 128 0 1 0 0 empty empty empty 0 -9 0 10 -262144
-1 -1 0 1;
#X floatatom 578 247 5 0 0 0 - - -, f 5;
#X floatatom 633 247 5 0 0 0 - - -, f 5;
#X floatatom 688 247 5 0 0 0 - - -, f 5;
#X floatatom 523 247 5 0 0 0 - - -, f 5;
#X obj 523 284 vsl 15 128 0 1 0 0 empty empty empty 0 -9 0 10 -262144
-1 -1 0 1;
#X obj 578 284 vsl 15 128 0 1 0 0 empty empty empty 0 -9 0 10 -262144
-1 -1 0 1;
#X obj 633 284 vsl 15 128 0 1 0 0 empty empty empty 0 -9 0 10 -262144
-1 -1 0 1;
#X obj 688 284 vsl 15 128 0 1 0 0 empty empty empty 0 -9 0 10 -262144
-1 -1 0 1;
#X obj 56 123 change;
#X obj 111 123 change;
#X obj 166 123 change;
#X obj 221 123 change;
#X obj 523 126 change;
#X obj 578 126 change;
#X obj 633 126 change;
#X obj 688 126 change;
#X obj 56 150 / 127;
#X obj 111 150 / 127;
#X obj 166 149 / 127;
#X obj 221 149 / 127;
#X obj 523 150 / 127;
#X obj 578 150 / 127;
#X obj 633 149 / 127;
#X obj 688 149 / 127;
#X obj 56 220 line;
#X obj 111 220 line;
#X obj 166 220 line;
#X obj 221 220 line;
#X obj 523 223 line;
#X obj 578 223 line;
#X obj 633 223 line;
#X obj 688 223 line;
#X obj 111 45 ctlin 2;
#X obj 166 45 ctlin 3;
#X obj 221 45 ctlin 4;
#X obj 523 48 ctlin 5;
#X obj 578 48 ctlin 6;
#X obj 633 48 ctlin 7;
#X obj 688 48 ctlin 8;
#X floatatom 999 248 5 0 0 0 - - -, f 5;
#X obj 999 285 vsl 15 128 0 1 0 0 empty empty empty 0 -9 0 10 -262144
-1 -1 0 1;
#X obj 999 127 change;
#X obj 999 154 / 127;
#X obj 999 224 line;
#X obj 999 49 ctlin 9;
#X obj 56 179 pack f 100;
#X obj 122 179 pack f 100;
#X obj 188 179 pack f 100;
#X obj 254 179 pack f 100;
#X obj 523 182 pack f 100;
#X obj 589 182 pack f 100;
#X obj 655 182 pack f 100;
#X obj 721 182 pack f 100;
#X obj 999 183 pack f 100;
#X obj 267 564 matrix4x4, f 56;
#X floatatom 600 540 5 0 0 0 - - -, f 5;
#X obj 678 549 tgl 34 0 empty empty empty 17 7 0 10 -262144 -1 -1 0
1;
#X obj 678 532 r m11;
#X obj 712 549 tgl 34 0 empty empty empty 17 7 0 10 -262144 -1 -1 0
1;
#X obj 712 532 r m12;
#X obj 746 549 tgl 34 0 empty empty empty 17 7 0 10 -262144 -1 -1 0
1;
#X obj 780 549 tgl 34 0 empty empty empty 17 7 0 10 -262144 -1 -1 0
1;
#X obj 746 532 r m13;
#X obj 780 532 r m14;
#X obj 678 600 tgl 34 0 empty empty empty 17 7 0 10 -262144 -1 -1 0
1;
#X obj 712 600 tgl 34 0 empty empty empty 17 7 0 10 -262144 -1 -1 0
1;
#X obj 746 600 tgl 34 0 empty empty empty 17 7 0 10 -262144 -1 -1 0
1;
#X obj 780 600 tgl 34 0 empty empty empty 17 7 0 10 -262144 -1 -1 0
1;
#X obj 678 583 r m21;
#X obj 712 583 r m22;
#X obj 746 583 r m23;
#X obj 780 583 r m24;
#X obj 678 651 tgl 34 0 empty empty empty 17 7 0 10 -262144 -1 -1 0
1;
#X obj 712 651 tgl 34 0 empty empty empty 17 7 0 10 -262144 -1 -1 0
1;
#X obj 746 651 tgl 34 0 empty empty empty 17 7 0 10 -262144 -1 -1 0
1;
#X obj 780 651 tgl 34 0 empty empty empty 17 7 0 10 -262144 -1 -1 0
1;
#X obj 678 634 r m31;
#X obj 712 634 r m32;
#X obj 746 634 r m33;
#X obj 780 634 r m34;
#X obj 678 702 tgl 34 0 empty empty empty 17 7 0 10 -262144 -1 -1 0
1;
#X obj 712 702 tgl 34 0 empty empty empty 17 7 0 10 -262144 -1 -1 0
1;
#X obj 746 702 tgl 34 0 empty empty empty 17 7 0 10 -262144 -1 -1 0
1;
#X obj 780 702 tgl 34 0 empty empty empty 17 7 0 10 -262144 -1 -1 0
1;
#X obj 678 685 r m41;
#X obj 712 685 r m42;
#X obj 746 685 r m43;
#X obj 780 685 r m44;
#X obj 267 590 s m11;
#X obj 289 613 s m12;
#X obj 311 635 s m13;
#X obj 333 657 s m14;
#X obj 355 596 s m21;
#X obj 377 619 s m22;
#X obj 400 641 s m23;
#X obj 422 663 s m24;
#X obj 444 599 s m31;
#X obj 466 622 s m32;
#X obj 489 644 s m33;
#X obj 511 666 s m34;
#X obj 533 600 s m41;
#X obj 555 623 s m42;
#X obj 577 645 s m43;
#X obj 600 667 s m44;
#X text 599 522 threshhold;
#X connect 0 0 6 0;
#X connect 1 0 7 0;
#X connect 2 0 8 0;
#X connect 3 0 5 0;
#X connect 4 0 17 0;
#X connect 9 0 14 0;
#X connect 10 0 15 0;
#X connect 11 0 16 0;
#X connect 12 0 13 0;
#X connect 17 0 25 0;
#X connect 17 0 63 0;
#X connect 18 0 26 0;
#X connect 18 0 63 1;
#X connect 19 0 27 0;
#X connect 19 0 63 2;
#X connect 20 0 28 0;
#X connect 20 0 63 3;
#X connect 21 0 29 0;
#X connect 21 0 63 4;
#X connect 22 0 30 0;
#X connect 22 0 63 5;
#X connect 23 0 31 0;
#X connect 23 0 63 6;
#X connect 24 0 32 0;
#X connect 24 0 63 7;
#X connect 25 0 54 0;
#X connect 26 0 55 0;
#X connect 27 0 56 0;
#X connect 28 0 57 0;
#X connect 29 0 58 0;
#X connect 30 0 59 0;
#X connect 31 0 60 0;
#X connect 32 0 61 0;
#X connect 33 0 3 0;
#X connect 34 0 0 0;
#X connect 35 0 1 0;
#X connect 36 0 2 0;
#X connect 37 0 12 0;
#X connect 38 0 9 0;
#X connect 39 0 10 0;
#X connect 40 0 11 0;
#X connect 41 0 18 0;
#X connect 42 0 19 0;
#X connect 43 0 20 0;
#X connect 44 0 21 0;
#X connect 45 0 22 0;
#X connect 46 0 23 0;
#X connect 47 0 24 0;
#X connect 48 0 49 0;
#X connect 50 0 51 0;
#X connect 51 0 62 0;
#X connect 52 0 48 0;
#X connect 53 0 50 0;
#X connect 54 0 33 0;
#X connect 55 0 34 0;
#X connect 56 0 35 0;
#X connect 57 0 36 0;
#X connect 58 0 37 0;
#X connect 59 0 38 0;
#X connect 60 0 39 0;
#X connect 61 0 40 0;
#X connect 62 0 52 0;
#X connect 63 0 97 0;
#X connect 63 1 98 0;
#X connect 63 2 99 0;
#X connect 63 3 100 0;
#X connect 63 4 101 0;
#X connect 63 5 102 0;
#X connect 63 6 103 0;
#X connect 63 7 104 0;
#X connect 63 8 105 0;
#X connect 63 9 106 0;
#X connect 63 10 107 0;
#X connect 63 11 108 0;
#X connect 63 12 109 0;
#X connect 63 13 110 0;
#X connect 63 14 111 0;
#X connect 63 15 112 0;
#X connect 64 0 63 8;
#X connect 66 0 65 0;
#X connect 68 0 67 0;
#X connect 71 0 69 0;
#X connect 72 0 70 0;
#X connect 77 0 73 0;
#X connect 78 0 74 0;
#X connect 79 0 75 0;
#X connect 80 0 76 0;
#X connect 85 0 81 0;
#X connect 86 0 82 0;
#X connect 87 0 83 0;
#X connect 88 0 84 0;
#X connect 93 0 89 0;
#X connect 94 0 90 0;
#X connect 95 0 91 0;
#X connect 96 0 92 0;
