#N canvas 175 23 1572 977 10;
#X obj 469 205 metro 500;
#X floatatom 520 173 5 0 0 0 - - -, f 5;
#X obj 469 175 tgl 15 0 empty empty empty 17 7 0 10 -262144 -1 -1 1
1;
#X obj 479 930 dac~;
#X obj 441 658 osc~ 330;
#X floatatom 495 782 5 0 0 0 - - -, f 5;
#X obj 498 756 hsl 128 15 0 1 0 0 empty empty volume -2 -8 0 10 -262144
-1 -1 1600 1;
#X floatatom 668 506 5 0 0 1 midi_note - -, f 5;
#X obj 668 536 mtof;
#X obj 495 830 line~;
#X msg 495 805 \$1 20;
#X msg 276 856 \; pd dsp \$1;
#X obj 276 829 tgl 15 0 empty empty empty 17 7 0 10 -262144 -1 -1 0
1;
#X obj 480 872 *~;
#X obj 594 361 select 0 1 2 3 4 5 6 7 8 9 10 11 12 13 14 15;
#X obj 441 627 line~;
#X msg 441 594 \$1 40;
#X text 42 55 Assignment #1 \, Pd exercise 1 example;
#X floatatom 441 569 5 0 0 1 frequency - -, f 5;
#X msg 594 416 66;
#X msg 626 418 68;
#X msg 659 418 70;
#X msg 691 418 65;
#X msg 724 418 78;
#X msg 757 418 80;
#X msg 789 418 82;
#X msg 822 418 77;
#X obj 520 143 expr 1000/($f1/60);
#X floatatom 520 110 5 0 0 0 - - -, f 5;
#X text 855 393 note sequencer;
#X text 588 71 beats per minute;
#X obj 333 717 *~, f 6;
#X obj 235 578 line~;
#X obj 262 348 t b b f;
#N canvas 0 22 852 517 counter 0;
#X obj 365 301 select 15;
#X obj 472 210 + 1;
#X floatatom 488 398 0 0 0 0 - - -;
#X obj 365 209 f 1;
#X msg 163 280 1;
#X obj 365 160 bng 30 250 50 0 empty empty empty 17 7 0 10 -262144
-1 -1;
#X obj 365 94 inlet;
#X obj 488 428 outlet;
#X obj 539 95 inlet;
#X text 152 214 a counter made with addition;
#X text 410 96 bang from metro;
#X text 584 97 number intet for changing the loop point;
#X obj 365 240 t f f f, f 21;
#X obj 365 328 bng 30 250 50 0 empty empty empty 17 7 0 10 -262144
-1 -1;
#X connect 0 0 4 0;
#X connect 0 0 13 0;
#X connect 1 0 3 1;
#X connect 2 0 7 0;
#X connect 3 0 12 0;
#X connect 4 0 3 1;
#X connect 5 0 3 0;
#X connect 6 0 5 0;
#X connect 8 0 0 1;
#X connect 12 0 0 0;
#X connect 12 1 1 0;
#X connect 12 2 2 0;
#X restore 469 259 pd counter;
#X floatatom 469 291 5 0 0 0 - - -, f 5;
#X msg 265 531 1 \, 0 50;
#X msg 207 530 0 \, 1 10;
#X obj 265 488 delay 60;
#X msg 520 70 200;
#X msg 480 70 100;
#X msg 555 70 300;
#X text 43 78 This might seem a bit advanced at first \, but aim to
get a grasp on what each part is doing. The basic idea for this assignment
is to use time objects to create melodies. First try modifying this
patch \, then review material covered in class and see what variations
you can make.;
#X connect 0 0 34 0;
#X connect 1 0 0 1;
#X connect 2 0 0 0;
#X connect 4 0 31 0;
#X connect 5 0 10 0;
#X connect 6 0 5 0;
#X connect 7 0 8 0;
#X connect 8 0 18 0;
#X connect 9 0 13 1;
#X connect 10 0 9 0;
#X connect 12 0 11 0;
#X connect 13 0 3 0;
#X connect 13 0 3 1;
#X connect 14 0 19 0;
#X connect 14 2 20 0;
#X connect 14 4 21 0;
#X connect 14 6 22 0;
#X connect 14 7 19 0;
#X connect 14 8 23 0;
#X connect 14 9 25 0;
#X connect 14 10 24 0;
#X connect 14 11 22 0;
#X connect 14 12 25 0;
#X connect 14 13 26 0;
#X connect 14 14 26 0;
#X connect 14 15 22 0;
#X connect 15 0 4 0;
#X connect 16 0 15 0;
#X connect 18 0 16 0;
#X connect 19 0 7 0;
#X connect 20 0 7 0;
#X connect 21 0 7 0;
#X connect 22 0 7 0;
#X connect 23 0 7 0;
#X connect 24 0 7 0;
#X connect 25 0 7 0;
#X connect 26 0 7 0;
#X connect 27 0 1 0;
#X connect 28 0 27 0;
#X connect 31 0 13 0;
#X connect 32 0 31 1;
#X connect 33 0 37 0;
#X connect 33 1 38 0;
#X connect 33 2 14 0;
#X connect 34 0 35 0;
#X connect 35 0 33 0;
#X connect 36 0 32 0;
#X connect 37 0 32 0;
#X connect 38 0 36 0;
#X connect 39 0 28 0;
#X connect 40 0 28 0;
#X connect 41 0 28 0;
