#N canvas 638 48 936 760 10;
#X obj 335 97 adc~;
#X obj 417 702 dac~;
#X obj 329 215 da_sdelay~;
#X obj 363 601 *~;
#X obj 392 601 *~;
#X obj 538 501 line~;
#X msg 538 479 \$1 100;
#X obj 541 456 hsl 128 15 0 1 0 0 empty empty empty -2 -8 0 10 -262144
-1 -1 7700 1;
#X connect 0 0 2 0;
#X connect 2 0 3 0;
#X connect 2 0 4 0;
#X connect 3 0 1 0;
#X connect 4 0 1 1;
#X connect 5 0 3 1;
#X connect 5 0 4 1;
#X connect 6 0 5 0;
#X connect 7 0 6 0;
