#N canvas 916 162 1330 930 10;
#X floatatom 529 148 20 0 0 0 - - -, f 20;
#X floatatom 685 553 0 0 0 0 - - -;
#X obj 685 625 line~;
#X obj 685 601 pack 0 100;
#X obj 685 577 * 0.01;
#X obj 335 380 +~;
#X obj 664 651 *~;
#X text 734 554 <-- feedback (hundredths);
#X obj 664 675 clip~ -1 1;
#X obj 323 -18 inlet~;
#X obj 66 760 outlet~;
#X obj 529 201 line~;
#X msg 529 173 \$1 100;
#X obj 529 226 vd~ \$0-l;
#X obj 924 167 loadbang;
#X obj 924 190 f \$0;
#X floatatom 924 215 5 0 0 0 - - -, f 5;
#X obj 414 -19 inlet;
#X obj 461 -18 r \$1;
#X obj 111 187 hsl 80 15 0 1 0 0 empty empty time -2 -8 0 10 -262144
-1 -1 0 1;
#X obj 111 223 hsl 80 15 0 1 0 0 empty empty feedback -2 -8 0 10 -262144
-1 -1 4500 1;
#X obj 111 152 hsl 80 15 0 1 0 0 empty empty wet -2 -8 0 10 -262144
-1 -1 0 1;
#X obj 159 708 *~;
#X obj 66 708 *~;
#X obj 66 738 +~;
#X obj 174 630 sin;
#X obj 81 630 cos;
#X obj 203 536 * 2;
#X obj 203 560 / 4;
#X obj 203 582 * 3.14159;
#X floatatom 203 604 5 0 0 0 - - -, f 5;
#X obj 174 679 line~;
#X obj 81 679 line~;
#X obj 174 652 pack f 60;
#X obj 81 652 pack f 60;
#X obj 685 529 * 96;
#X text 584 121 delay time \, how long it takes to make a repeat;
#X text 746 492 feedback \, how many times it repeats \; low = it fades
away quickly \; hight = it fades away slowly;
#X text 266 592 wet/dry;
#X obj 414 20 route /wet /time /feedback;
#X obj 664 699 delwrite~ \$0-l 60000;
#X obj 529 122 * 60000;
#X floatatom 779 599 5 0 0 0 - - -, f 5;
#X connect 0 0 12 0;
#X connect 1 0 4 0;
#X connect 2 0 6 1;
#X connect 3 0 2 0;
#X connect 4 0 3 0;
#X connect 4 0 42 0;
#X connect 5 0 6 0;
#X connect 5 0 22 0;
#X connect 6 0 8 0;
#X connect 8 0 40 0;
#X connect 9 0 5 0;
#X connect 9 0 23 0;
#X connect 11 0 13 0;
#X connect 12 0 11 0;
#X connect 13 0 5 1;
#X connect 14 0 15 0;
#X connect 15 0 16 0;
#X connect 17 0 39 0;
#X connect 18 0 39 0;
#X connect 19 0 41 0;
#X connect 20 0 35 0;
#X connect 21 0 27 0;
#X connect 22 0 24 1;
#X connect 23 0 24 0;
#X connect 24 0 10 0;
#X connect 25 0 33 0;
#X connect 26 0 34 0;
#X connect 27 0 28 0;
#X connect 28 0 29 0;
#X connect 29 0 30 0;
#X connect 30 0 25 0;
#X connect 30 0 26 0;
#X connect 31 0 22 1;
#X connect 32 0 23 1;
#X connect 33 0 31 0;
#X connect 34 0 32 0;
#X connect 35 0 1 0;
#X connect 39 0 21 0;
#X connect 39 1 19 0;
#X connect 39 2 20 0;
#X connect 41 0 0 0;
#X coords 0 -1 1 1 100 160 1 100 100;
